<svg id="Layer_3" height="512" viewBox="0 0 64 64" width="512" xmlns="http://www.w3.org/2000/svg" data-name="Layer 3"><path d="m54 40 4.379-4.379a2.12 2.12 0 0 0 .621-1.5 2.122 2.122 0 0 0 -2.121-2.121 2.12 2.12 0 0 0 -1.5.621l-3.379 3.379" fill="#3b5892"/><path d="m55.379 32.621-3.379 3.379 1 2 3.379-3.379a2.1 2.1 0 0 0 .3-2.6 2.114 2.114 0 0 0 -1.3.6z" fill="#4c6cb5"/><path d="m49 25 12.835 30.606a2.123 2.123 0 0 1 .165.821v.452a2.122 2.122 0 0 1 -2.121 2.121 2.12 2.12 0 0 1 -1.5-.621l-21.879-21.879" fill="#5e87ca"/><path d="m59 53.879v-.452a2.123 2.123 0 0 0 -.165-.821l-11.092-26.45-11.243 10.344 18.879 18.879a2.121 2.121 0 0 0 3.621-1.5z" fill="#78a0d4"/><path d="m42.418 31.41 3.6-3.062a53.927 53.927 0 0 0 15.833-22.931 2.547 2.547 0 0 0 .149-.86 2.557 2.557 0 0 0 -2.557-2.557 2.547 2.547 0 0 0 -.86.149 53.927 53.927 0 0 0 -22.931 15.835l-26.552 31.198a52.163 52.163 0 0 0 -6.929 10.476 1.613 1.613 0 0 0 -.171.724 1.617 1.617 0 0 0 1.618 1.618 1.613 1.613 0 0 0 .724-.171 52.163 52.163 0 0 0 10.476-6.929l12.182-10.261" fill="#c8cded"/><path d="m59 4.557a2.555 2.555 0 0 0 -1.135-2.125 53.919 53.919 0 0 0 -22.213 15.552l-26.552 31.198a52.163 52.163 0 0 0 -6.929 10.476 1.609 1.609 0 0 0 .129 1.656 52.16 52.16 0 0 0 9.518-6.414l12.182-10.261 15.419-13.229 3.6-3.062a53.927 53.927 0 0 0 15.832-22.931 2.547 2.547 0 0 0 .149-.86z" fill="#e2e7f6"/><path d="m23 11 5.379-5.379a2.12 2.12 0 0 1 1.5-.621 2.122 2.122 0 0 1 2.121 2.121 2.12 2.12 0 0 1 -.621 1.5l-3.379 3.379" fill="#3b5892"/><path d="m23 11 2.5.5 2.881-2.881a2.124 2.124 0 0 0 .619-1.498 2.087 2.087 0 0 0 -.631-1.49z" fill="#4c6cb5"/><path d="m38.57 14.82-30.176-12.655a2.123 2.123 0 0 0 -.821-.165h-.452a2.122 2.122 0 0 0 -2.121 2.121 2.12 2.12 0 0 0 .621 1.5l21.908 21.908" fill="#5e87ca"/><path d="m6.212 6.212 21.317 21.317 9.4-10.818-27.535-11.546a2.123 2.123 0 0 0 -.821-.165h-.452a2.115 2.115 0 0 0 -1.909 1.212z" fill="#78a0d4"/><path d="m21 49.638v10.948a1.414 1.414 0 0 1 -1.414 1.414 1.415 1.415 0 0 1 -1-.414l-5.374-5.374" fill="#5e87ca"/><path d="m19 58.586v-7.259l-5.788 4.885 3.374 3.374a1.414 1.414 0 0 0 2.414-1z" fill="#78a0d4"/><path d="m15.213 42h-11.799a1.414 1.414 0 0 0 -1.414 1.414 1.415 1.415 0 0 0 .414 1l5.817 5.817" fill="#5e87ca"/><path d="m5.414 44a1.414 1.414 0 0 0 -1 2.414l3.817 3.817 5.285-6.231z" fill="#78a0d4"/><path d="m54.441 19.322-.441-1.322a12.649 12.649 0 0 0 -8-8l-1.322-.441a53.713 53.713 0 0 1 5.422-3.524 12.648 12.648 0 0 1 7.865 7.865 53.713 53.713 0 0 1 -3.524 5.422z" fill="#7fa3f8"/><path d="m48.842 6.8c-1.426.861-2.824 1.768-4.164 2.758l1.322.442a12.643 12.643 0 0 1 7.383 6.5c.55-.853 1.081-1.72 1.582-2.6a12.634 12.634 0 0 0 -6.123-7.1z" fill="#acc9fb"/><g fill="#c8cded"><path d="m32.55 49.5h9.899v2h-9.899z" transform="matrix(.707 -.707 .707 .707 -24.725 41.308)"/><path d="m38.55 55.5h9.899v2h-9.899z" transform="matrix(.707 -.707 .707 .707 -27.211 47.308)"/><path d="m30.722 54.5h15.556v2h-15.556z" transform="matrix(.707 -.707 .707 .707 -27.968 43.479)"/><path d="m2.55 19.5h9.899v2h-9.899z" transform="matrix(.707 -.707 .707 .707 -12.299 11.308)"/><path d="m8.55 25.5h9.899v2h-9.899z" transform="matrix(.707 -.707 .707 .707 -14.784 17.308)"/><path d="m.722 24.5h15.556v2h-15.556z" transform="matrix(.707 -.707 .707 .707 -15.542 13.479)"/></g></svg>